<svg xmlns="http://www.w3.org/2000/svg" viewBox="0 0 500 500">
	<defs>
		<style>
			.cls-1{fill:#47568c;}
			.cls-2{fill:#f03800;}
			.cls-3{fill:#fed843;}
			.cls-4{fill:#6aa9ff;}
		</style>
	</defs>
	<g id="icon">
		<path id="blue" class="cls-1" d="M169.5,269.5H158V226H114.5v11.5a34.58,34.58,0,0,1-35,34.5,34.58,34.58,0,0,1-35-34.5v-5l.16-6.5H0V384H158V339.34l6.5.16h5a35,35,0,0,0,0-70Z" />
		<path id="red" class="cls-2" d="M272.35,226l.15-6v-5a35,35,0,0,0-70,0v11H158v43.75h11.25a35,35,0,0,1,0,70h-5L158,339.6V384H316V226Z" />
		<path id="yellow" class="cls-3" d="M124.38,135H158V68H0V226H44.66l-.16,6.5v5a34.58,34.58,0,0,0,35,34.5,34.58,34.58,0,0,0,35-34.5V226H158V159H124.62A11.62,11.62,0,0,1,113,147.38v-1A11.37,11.37,0,0,1,124.38,135Z" />
		<path id="lightBlue" class="cls-4" d="M226,0V44.9l-6.25-.15h-5a34.58,34.58,0,0,0-34.5,35,34.58,34.58,0,0,0,34.5,35H226V158h66V124.62A11.62,11.62,0,0,1,303.62,113h1A11.37,11.37,0,0,1,316,124.38V158h68V0Z" />
	</g>
</svg>
