<svg xmlns="http://www.w3.org/2000/svg" viewBox="0 0 693 349">
	<defs>
		<style>
			.cls-1{fill:#f03800;}.cls-2{fill:#47568c;}.cls-3{fill:#fed843;}.cls-4{fill:#6aa9ff;}
		</style>
	</defs>
	<g id="logotexthorizontal">
		<path class="cls-red" d="M339.89,320.1,340,320h0a53.6,53.6,0,0,0,15-18.94,59.77,59.77,0,0,0-1.86-53.82A52.49,52.49,0,0,0,333,227.37a59.22,59.22,0,0,0-56.38,0,53.08,53.08,0,0,0-20.27,19.88,59.23,59.23,0,0,0,0,57.55,52.8,52.8,0,0,0,20.27,20,56.83,56.83,0,0,0,28.19,7.15,61.61,61.61,0,0,0,12-1.24l13.2,18h0l.22.32h.42l1.22-.32-1.22.32h25.76c-5.29-9.55-10.59-18.49-15.88-28.14Zm-14.22-21.28q-7.85,8.55-20.89,8.55-13.2,0-21-8.55T275.89,276q0-14.3,7.84-22.83t21-8.55q13.05,0,20.89,8.55T333.52,276Q333.52,290.28,325.67,298.82Z" />
		<path class="cls-red" d="M429.87,286.86q0,9.79-5,15.07t-14.29,5.28q-9.33,0-14.14-5.28t-4.81-15.07V221.78H365.1v65.08q0,14.44,6.13,24.62a39.26,39.26,0,0,0,16.47,15.3,49.71,49.71,0,0,0,22.44,5.13,51.22,51.22,0,0,0,22.68-5.13,41.48,41.48,0,0,0,17.09-15.3q6.51-10.17,6.52-24.62V221.78H429.87Z" />
		<rect class="cls-red" x="463.11" y="221.78" width="26.56" height="109.04" />
		<polygon class="cls-red" points="497.08 241.97 543.53 241.97 497.08 310.63 497.08 330.82 574.13 330.82 574.13 310.63 527.68 310.63 574.13 241.97 574.13 221.78 497.08 221.78 497.08 241.97" />
		<rect class="cls-red" x="580.54" y="221.78" width="26.56" height="109.04" />
		<polygon class="cls-red" points="606.95 221.78 606.95 241.97 636.62 241.97 636.62 330.82 663.18 330.82 663.18 241.97 693 241.97 693 221.78 606.95 221.78" />
		<path id="blue" class="cls-blue" d="M0,113.3V349H205.52L185,278.3s45,10.87,20.52-43.56c0,0-16.52-40.44-46.52-41.44l-13-43-35-8s14.63,33.17-13.91,39.77a7,7,0,0,1-2.38.12c-7.46-.8-45-7.27-47.71-55.89Z" />
		<path id="red" class="cls-red" d="M144,149.68,156,193s31-1,48,41.27c0,0,23,52.35-22,43.29L203.3,349H333.22L248,176.86l-25-7.05s-15-36.24-38-42.28c0,0-25-7-9,30.2Z" />
		<path id="yellow" class="cls-yellow" d="M0,0,112.55,42l13.19,41S91.26,67,95.32,79c0,0-3,12,33,18.9L144,150l-33.47-8c1.09.24,15.09,40-16.23,40-2.2-.16-44.28,5-48.67-55L0,114.68Z" />
		<path id="lightBlue" class="cls-lightBlue" d="M139,25l8,21s-25-14-19,9c0,0,3,19,34,29l11,27,38,12s-15-28-6-25,18.83,24,19.91,29L260,139,214,55Z" />
	</g>
</svg>
