<svg xmlns="http://www.w3.org/2000/svg" viewBox="0 0 333.22 349">
	<defs>
		<style>
			.cls-1{fill:#47568c;}
			.cls-2{fill:#f03800;}
			.cls-3{fill:#fed843;}
			.cls-4{fill:#6aa9ff;}
		</style>
	</defs>
	<g id="logo">
		<path id="blue" class="cls-blue" d="M0,113.3V349H205.52L185,278.3s45,10.87,20.52-43.56c0,0-16.52-40.44-46.52-41.44l-13-43-35-8s14.63,33.17-13.91,39.77a7,7,0,0,1-2.38.12c-7.46-.8-45-7.27-47.71-55.89Z" />
		<path id="red" class="cls-red" d="M144,149.68,156,193s31-1,48,41.27c0,0,23,52.35-22,43.29L203.3,349H333.22L248,176.86l-25-7.05s-15-36.24-38-42.28c0,0-25-7-9,30.2Z" />
		<path id="yellow" class="cls-yellow" d="M0,0,112.55,42l13.19,41S91.26,67,95.32,79c0,0-3,12,33,18.9L144,150l-33.47-8c1.09.24,15.09,40-16.23,40-2.2-.16-44.28,5-48.67-55L0,114.68Z" />
		<path id="lightBlue" class="cls-lightBlue" d="M139,25l8,21s-25-14-19,9c0,0,3,19,34,29l11,27,38,12s-15-28-6-25,18.83,24,19.91,29L260,139,214,55Z" />
	</g>
</svg>
