<svg xmlns="http://www.w3.org/2000/svg" viewBox="0 0 333.22 472">
	<defs>
		<style>
			.cls-1{fill:#f03800;}.cls-2{fill:#47568c;}.cls-3{fill:#fed843;}.cls-4{fill:#6aa9ff;}
		</style>
	</defs>
	<g id="logotextvertical">
		<path class="cls-red" d="M69.45,462.24l-.44-.56.09-.07h0a39.43,39.43,0,0,0,11.08-14,44.05,44.05,0,0,0-1.37-39.7,38.74,38.74,0,0,0-14.9-14.67A42,42,0,0,0,43.12,388a42,42,0,0,0-20.8,5.27,39.18,39.18,0,0,0-15,14.67,43.72,43.72,0,0,0,0,42.46,39,39,0,0,0,15,14.72,41.9,41.9,0,0,0,20.8,5.27,44.38,44.38,0,0,0,8.82-.92L53.79,472H74.93C73.1,468.79,71.27,465.58,69.45,462.24ZM58.53,446q-5.79,6.31-15.41,6.31T27.59,446q-5.79-6.3-5.79-16.84t5.79-16.85q5.78-6.3,15.53-6.3t15.41,6.3q5.78,6.31,5.78,16.85T58.53,446Z" />
		<path class="cls-red" d="M135.39,437.16q0,7.21-3.66,11.11t-10.54,3.9q-6.89,0-10.43-3.9t-3.55-11.11v-48H87.61v48q0,10.65,4.53,18.16a28.94,28.94,0,0,0,12.14,11.29,36.75,36.75,0,0,0,16.56,3.78,37.81,37.81,0,0,0,16.73-3.78,30.6,30.6,0,0,0,12.61-11.29q4.81-7.5,4.81-18.16v-48h-19.6Z" />
		<rect class="cls-red" x="159.91" y="389.15" width="19.59" height="80.44" />
		<polygon class="cls-red" points="184.98 404.04 219.24 404.04 184.98 454.69 184.98 469.59 241.82 469.59 241.82 454.69 207.56 454.69 241.82 404.04 241.82 389.15 184.98 389.15 184.98 404.04" />
		<rect class="cls-red" x="246.55" y="389.15" width="19.59" height="80.44" />
		<polygon class="cls-red" points="266.03 389.15 266.03 404.04 287.92 404.04 287.92 469.59 307.51 469.59 307.51 404.04 329.51 404.04 329.51 389.15 266.03 389.15" />
		<path id="blue" class="cls-blue" d="M0,113.3V349H205.52L185,278.3s45,10.87,20.52-43.56c0,0-16.52-40.44-46.52-41.44l-13-43-35-8s14.63,33.17-13.91,39.77a7,7,0,0,1-2.38.12c-7.46-.8-45-7.27-47.71-55.89Z" />
		<path id="red" class="cls-red" d="M144,149.68,156,193s31-1,48,41.27c0,0,23,52.35-22,43.29L203.3,349H333.22L248,176.86l-25-7.05s-15-36.24-38-42.28c0,0-25-7-9,30.2Z" />
		<path id="yellow" class="cls-yellow" d="M0,0,112.55,42l13.19,41S91.26,67,95.32,79c0,0-3,12,33,18.9L144,150l-33.47-8c1.09.24,15.09,40-16.23,40-2.2-.16-44.28,5-48.67-55L0,114.68Z" />
		<path id="lightBlue" class="cls-lightBlue" d="M139,25l8,21s-25-14-19,9c0,0,3,19,34,29l11,27,38,12s-15-28-6-25,18.83,24,19.91,29L260,139,214,55Z" />
	</g>
</svg>
